# xmcd
#
# Track frame offsets: 
#        150
#        33717
#        60802
#        94505
#        109797
#        140707
#        163377
#        182777
#        201040
#        223287
#        247305
#
# Disc length: 3656 seconds
#
# Revision: 2
# Processed by: cddbd v1.5.2PL0 Copyright (c) Steve Scherf et al.
# Submitted via: ExactAudioCopy v0.99pb4
#
DISCID=a90e460b
DTITLE=Eric Reed - Blue Trane
DYEAR=2005
DGENRE=Jazz
TTITLE0=Blue Trane
TTITLE1=Isotope
TTITLE2=Polka Dots And Moonbeams
TTITLE3=Reflections
TTITLE4=You're Sensational
TTITLE5=Cool Struttin'
TTITLE6=Waltz For Zweetie
TTITLE7=I Remember Clifford
TTITLE8=Blue Silver
TTITLE9=You Go To My Head
TTITLE10=Maiden Voyage
EXTD=YEAR: 2005
EXTT0=
EXTT1=
EXTT2=
EXTT3=
EXTT4=
EXTT5=
EXTT6=
EXTT7=
EXTT8=
EXTT9=
EXTT10=
PLAYORDER=
